<?xml version="1.0" encoding="utf-8"?>
<!-- Generator: Adobe Illustrator 20.1.0, SVG Export Plug-In . SVG Version: 6.00 Build 0)  -->
<svg version="1.1" id="Layer_1" xmlns="http://www.w3.org/2000/svg" xmlns:xlink="http://www.w3.org/1999/xlink" x="0px" y="0px" width="190" height="55.6"
	 viewBox="0 0 190 55.6" style="enable-background:new 0 0 190 55.6;" xml:space="preserve">
<style type="text/css">
	.st0{fill:#E31837;}
	.st1{fill:#8DC63F;}
	.st2{fill:#FDB913;}
	.st3{fill:#5E9732;}
</style>
<g id="_x3C_Layer_x3E_">
	<g>
		<path d="M52.3,39.7h1.5c0.1,0,0.2,0.1,0.2,0.2v5.8c0,1.1,0.1,1.4,0.6,1.8c0.4,0.3,0.9,0.5,1.5,0.5c0.7,0,1.1-0.1,1.6-0.4
			c0.5-0.4,0.7-0.8,0.7-1.8v-5.8c0-0.1,0.1-0.2,0.2-0.2h1.1c0.1,0,0.2,0.1,0.2,0.2v6.3c0,1-0.4,1.9-1.1,2.4
			c-0.7,0.5-1.5,0.7-2.7,0.7c-1.2,0-2.1-0.2-2.8-0.8c-0.8-0.6-1.1-1.3-1.1-2.9v-5.9C52.1,39.8,52.2,39.7,52.3,39.7z"/>
		<path d="M68.7,41.9V49c0,0.1-0.1,0.2-0.2,0.2h-1.1c-0.1,0-0.2-0.1-0.2-0.2v-9.1c0-0.1,0.1-0.2,0.2-0.2H69c0.2,0,0.4,0.1,0.5,0.3
			l4.2,6.7v-6.8c0-0.1,0.1-0.2,0.2-0.2h1c0.1,0,0.2,0.1,0.2,0.2V49c0,0.1-0.1,0.2-0.2,0.2h-1.4c-0.2,0-0.4-0.1-0.5-0.3L68.7,41.9z"
			/>
		<path d="M82.7,49v-9.1c0-0.1,0.1-0.2,0.2-0.2h1.5c0.1,0,0.2,0.1,0.2,0.2V49c0,0.1-0.1,0.2-0.2,0.2h-1.5
			C82.8,49.2,82.7,49.1,82.7,49z"/>
		<path d="M95.5,47.3l2.3-7.3c0.1-0.3,0.1-0.3,0.4-0.3h0.9c0.2,0,0.3,0,0.3,0.2c0,0,0,0.1,0,0.1l-3,8.7c-0.2,0.5-0.2,0.6-0.6,0.6h-1
			c-0.4,0-0.4,0-0.6-0.5l-3-8.8c0-0.1,0-0.1,0-0.1c0-0.1,0.1-0.2,0.3-0.2h1.2c0.3,0,0.4,0.1,0.5,0.3L95.5,47.3z"/>
		<path d="M107.9,41.1v2.4h2.9c0.1,0,0.2,0.1,0.2,0.2v1c0,0.1-0.1,0.2-0.2,0.2h-2.9v2.8h3.9c0.1,0,0.2,0.1,0.2,0.2v1
			c0,0.1-0.1,0.2-0.2,0.2h-5.6c-0.1,0-0.2-0.1-0.2-0.2v-9.1c0-0.1,0.1-0.2,0.2-0.2h5.3c0.1,0,0.2,0.1,0.2,0.2V41
			c0,0.1-0.1,0.2-0.2,0.2L107.9,41.1L107.9,41.1z"/>
		<path d="M120.7,44.8V49c0,0.1-0.1,0.2-0.2,0.2h-1.5c-0.1,0-0.2-0.1-0.2-0.2v-9.1c0-0.1,0.1-0.2,0.2-0.2h3.1c1.1,0,1.7,0.2,2.2,0.6
			c0.5,0.4,0.7,1,0.7,1.8c0,1.4-0.7,2.2-2,2.4l0.1,0.1c0.1,0.1,0.2,0.3,0.5,0.6c0.4,0.5,0.6,0.9,0.8,1.1l1.5,2.3
			c0.1,0.2,0.1,0.2,0.1,0.3c0,0.1-0.1,0.2-0.3,0.2h-1.6c-0.1,0-0.1,0-0.2-0.1l-2.7-4.1c-0.1-0.2-0.2-0.2-0.3-0.2L120.7,44.8
			L120.7,44.8z M120.7,43.8h1.2c0.8,0,1.3-0.6,1.3-1.4c0-0.9-0.5-1.4-1.3-1.4h-1.2L120.7,43.8L120.7,43.8z"/>
		<path d="M135.5,45.4l-1.4-1c-0.9-0.7-1.2-1.2-1.2-2.1c0-1.6,1.2-2.7,3.1-2.7c1.3,0,2.3,0.3,2.3,0.7v1c0,0.1-0.1,0.2-0.2,0.2
			c-0.1,0-0.1,0-0.2-0.1c-0.7-0.3-1.2-0.5-1.8-0.5c-0.9,0-1.4,0.4-1.4,1c0,0.4,0.2,0.7,0.9,1.2l1.5,1c1,0.7,1.4,1.3,1.4,2.3
			c0,1.7-1.2,2.8-3.3,2.8c-1.5,0-2.6-0.4-2.6-0.9v-1c0-0.1,0.1-0.2,0.2-0.2c0,0,0.1,0,0.2,0.1c0.8,0.4,1.3,0.6,2,0.6
			c1,0,1.6-0.4,1.6-1.1C136.5,46.2,136.3,45.9,135.5,45.4z"/>
		<path d="M145.6,49v-9.1c0-0.1,0.1-0.2,0.2-0.2h1.5c0.1,0,0.2,0.1,0.2,0.2V49c0,0.1-0.1,0.2-0.2,0.2h-1.5
			C145.7,49.2,145.6,49.1,145.6,49z"/>
		<path d="M157,41.1h-2.7c-0.1,0-0.2-0.1-0.2-0.2v-1c0-0.1,0.1-0.2,0.2-0.2h7.2c0.1,0,0.2,0.1,0.2,0.2v1c0,0.1-0.1,0.2-0.2,0.2h-2.7
			V49c0,0.1-0.1,0.2-0.2,0.2h-1.5c-0.1,0-0.2-0.1-0.2-0.2L157,41.1L157,41.1z"/>
		<path d="M171.3,45.5l-3.2-5.4c-0.1-0.1-0.1-0.1-0.1-0.2c0-0.1,0.1-0.2,0.3-0.2h1.4c0.3,0,0.4,0.1,0.5,0.3l2.2,3.7l2.1-3.8
			c0.1-0.2,0.2-0.2,0.4-0.2h1c0.2,0,0.3,0.1,0.3,0.2c0,0,0,0.1-0.1,0.2l-2.9,5.3V49c0,0.1-0.1,0.2-0.2,0.2h-1.5
			c-0.1,0-0.2-0.1-0.2-0.2L171.3,45.5L171.3,45.5z"/>
	</g>
	<g>
		<path d="M55.8,12.6v18.8c0,0.3-0.2,0.5-0.5,0.5h-2.7c-0.3,0-0.5-0.2-0.5-0.5V6.9c0-0.3,0.2-0.5,0.5-0.5h4.7c1,0,1.2,0.2,1.5,1.1
			l6.6,20.3l6.3-19.9c0.4-1.3,0.6-1.5,1.4-1.5h5c0.3,0,0.5,0.2,0.5,0.5v24.4c0,0.3-0.2,0.5-0.5,0.5h-3.8c-0.3,0-0.5-0.2-0.5-0.5
			V12.5l-6,17.7c-0.5,1.5-0.6,1.6-1.6,1.6h-3c-0.7,0-0.9-0.2-1.3-1.3L55.8,12.6z"/>
		<path d="M94.3,31L94.3,31c-0.6,0-0.8,0-1.3,0.3l-1.2,0.4c-0.9,0.4-2.1,0.5-3.4,0.5c-4.1,0-6.3-2.1-6.3-6V14c0-0.3,0.2-0.5,0.5-0.5
			h3.4c0.3,0,0.5,0.2,0.5,0.5v10.6c0,2.9,1.1,4.2,3.6,4.2c2.4,0,3.7-1,3.7-2.6V14c0-0.3,0.2-0.5,0.5-0.5h3.4c0.3,0,0.5,0.2,0.5,0.5
			v17.3c0,0.3-0.2,0.5-0.5,0.5h-3c-0.2,0-0.4-0.2-0.4-0.5L94.3,31L94.3,31z"/>
		<path d="M106.1,14.7c0.4,0,0.5,0,1-0.3c1.4-0.6,2.9-1,4.1-1s1.5,0.1,1.5,0.8v2.7c0,0.4-0.2,0.6-0.6,0.6c-0.1,0-0.3,0-0.5,0
			l-0.7-0.1l-0.9-0.1c-0.3,0-0.6,0-0.9,0c-2,0-2.7,0.8-2.7,2.7v11.6c0,0.3-0.2,0.5-0.5,0.5h-3.4c-0.3,0-0.5-0.2-0.5-0.5V14
			c0-0.3,0.2-0.5,0.5-0.5h3c0.4,0,0.6,0.2,0.6,0.5L106.1,14.7L106.1,14.7z"/>
		<path d="M127.4,30.8c-0.3,0-0.4,0-0.8,0.2c-1.3,0.7-2.7,1-4.1,1c-5.2,0-8.6-3.7-8.6-9.3c0-5.7,3.6-9.6,8.7-9.6
			c1.4,0,2.5,0.3,3.6,0.9c0.4,0.2,0.5,0.3,0.9,0.3V6.7c0-0.3,0.2-0.5,0.5-0.5h3.4c0.3,0,0.5,0.2,0.5,0.5v24.6c0,0.3-0.2,0.5-0.5,0.5
			h-3c-0.3,0-0.6-0.2-0.6-0.5L127.4,30.8L127.4,30.8z M127,26.5v-7.4c0-1.9-1.2-2.9-3.7-2.9c-3.3,0-5.1,2.3-5.1,6.4
			c0,4.2,1.8,6.4,5.1,6.4C125.6,29,127,28.1,127,26.5z"/>
		<path d="M134.2,22.8c0-6.2,3.1-9.6,9-9.6c2.7,0,4.6,0.6,6.1,1.9c1.9,1.7,2.9,4.3,2.9,7.5c0,6.4-3.1,9.8-9,9.8
			c-2.8,0-4.5-0.5-6.1-2C135.1,28.7,134.2,26.3,134.2,22.8z M138.6,22.7c0,4.2,1.7,6.6,4.6,6.6c2.9,0,4.6-2.4,4.6-6.4
			c0-4.2-1.7-6.7-4.5-6.7C140.3,16.3,138.6,18.7,138.6,22.7z"/>
		<path d="M169.2,28.3v1.9c0,1.2-2.6,2-6,2c-5.7,0-9-3.4-9-9.3c0-5.8,3.7-9.7,9.2-9.7c3.2,0,5.8,0.8,5.8,1.8v2
			c0,0.3-0.2,0.4-0.4,0.4c-0.1,0-0.4-0.1-0.7-0.2c-1.1-0.6-2.7-1-4-1c-3.6,0-5.5,2.2-5.5,6.3c0,4.4,1.8,6.5,5.3,6.5
			c1.5,0,3.2-0.4,4.4-1.1c0.2-0.1,0.4-0.2,0.6-0.2C169,27.8,169.2,28,169.2,28.3z"/>
		<path d="M176.3,14.4L176.3,14.4c0.5,0,0.6,0,1.2-0.3c1.2-0.6,2.6-0.9,4.2-0.9c4,0,6.4,2.3,6.4,6.3v11.9c0,0.3-0.2,0.5-0.5,0.5
			h-3.4c-0.3,0-0.5-0.2-0.5-0.5V21c0-3.1-1.1-4.4-3.5-4.4c-2.4,0-3.8,1-3.8,2.6v12.2c0,0.3-0.2,0.5-0.5,0.5h-3.4
			c-0.3,0-0.5-0.2-0.5-0.5V6.8c0-0.3,0.2-0.5,0.5-0.5h3.4c0.3,0,0.5,0.2,0.5,0.5L176.3,14.4L176.3,14.4z"/>
	</g>
</g>
<g id="_x3C_Layer_x3E__1_">
	<path class="st0" d="M35.6,37.1h-7.9c-0.9,0-2.9,0.2-4.2,1c-1.1,0.7-2,1.9-2,1.9s-0.9-1.2-2-1.9c-1.4-0.8-3.3-1-4.2-1H7.3
		c0.7,1.4,1.6,2.7,2.7,3.8c6.2,6.2,11.4,8.2,11.4,8.2s5.2-1.9,11.4-8.2C34,39.8,34.9,38.5,35.6,37.1z"/>
	<g>
		<path class="st1" d="M40.9,27.3l-1.1,2.6c0,0-1.2,0.5-3.2,0.5s-1.8-0.2-3.8-0.2c-4.4,0-6.3,1.5-6.3,1.5s0.9-2.1,3.5-3.2
			c1.3-0.5,2.3-0.6,3-0.6c0.7,0,3,0.3,4.3,0.3C39,28.3,40.9,27.3,40.9,27.3z"/>
		<path class="st1" d="M2,27.3l1.1,2.6c0,0,1.2,0.5,3.2,0.5s1.8-0.2,3.8-0.2c4.4,0,6.3,1.5,6.3,1.5s-0.9-2.1-3.5-3.2
			c-1.3-0.5-2.3-0.6-3-0.6s-2.9,0.3-4.3,0.3C4,28.3,2,27.3,2,27.3z"/>
	</g>
	<path class="st2" d="M26.8,17c0-1.3-0.5-2.6-1.3-3.5l-0.2,17.7l-0.5-18.4c-0.5-0.4-1-0.7-1.6-0.9L23,32.6l-0.5-20.8
		c-0.3-0.1-0.6-0.1-0.9-0.1c-0.3,0-0.6,0-0.9,0.1L20,32.6L19.7,12c-0.6,0.2-1.1,0.5-1.6,0.9l-0.5,18.4l-0.2-17.7
		c-0.8,0.9-1.3,2.2-1.3,3.5c0,1-0.2,8.1-0.2,11.1c0,3.3,2.5,4.8,3.6,5.2c1.7,0.6,1.9,2.2,1.9,2.2s0.2-1.5,1.9-2.2
		c1.1-0.4,3.5-1.9,3.6-5.2C27,25.2,26.8,18,26.8,17z"/>
	<g>
		<path class="st3" d="M39.6,33.1c0,0-10.8,0-11.6,0c-3.8,0-6.4,2.4-6.5,5.3c0.1-0.1,1.2-3.1,6.4-3.1c1.1,0,10.9,0,10.9,0L39.6,33.1
			L39.6,33.1z"/>
		<path class="st3" d="M3.3,33.1c0,0,10.8,0,11.6,0c3.8,0,6.4,2.4,6.5,5.3c-0.1-0.1-1.2-3.1-6.4-3.1c-1.1,0-10.9,0-10.9,0L3.3,33.1
			L3.3,33.1z"/>
	</g>
	<path class="st0" d="M21.6,6.4l0.1,2.1l0.5,0.9c0.6,0.1,1.2,0.2,1.8,0.4l0-0.1l0.9-0.6l0.9-1.8l0.1,0l0.1,0l-0.8,1.8l0.1,1.1l0,0.1
		c0.6,0.3,1.1,0.7,1.6,1.2l0.1-0.1l1.1-0.2l1.5-1.2l0.1,0.1l0.1,0.1l-1.4,1.3l-0.4,1l-0.1,0c0.4,0.6,0.8,1.2,1,1.9l1,0.2l1.9-0.5
		l0,0.1l0,0.1L29.8,15L29,15.8h0c0.1,0.4,0.1,0.8,0.1,1.2c0,0,0,0.5,0,1.3l0.8,0.4l2-0.1v0.1v0.1L30,19l-0.8,0.5
		c0,0.7,0,1.5,0.1,2.4l0.8,0.5l2,0.1v0.2l-2,0.1l-0.8,0.4c0,0.8,0,1.6,0.1,2.2l0.8,0.5l2,0.1v0.2l-2,0.1l-0.8,0.4c0,0.7,0,1.1,0,1.2
		c0,0.3-0.1,0.7-0.1,1l0,0c0.3-0.2,0.5-0.3,0.8-0.4c1.3-0.5,2.3-0.6,3-0.6c0.7,0,3,0.3,4.3,0.3c0.2,0,0.5,0,0.7-0.1
		c0.1-0.6,0.1-1.2,0.1-1.5c0-1.8,0-20.4,0-20.4H21.6V6.4z M4.7,26.8c0,0.3,0,0.8,0.1,1.5c0.2,0,0.5,0.1,0.7,0.1
		c1.3,0,3.6-0.3,4.3-0.3s1.8,0.1,3,0.6c0.3,0.1,0.6,0.3,0.8,0.4c-0.1-0.3-0.1-0.7-0.1-1c0-0.1,0-0.5,0-1.2l-0.7-0.4l-2-0.1v-0.2
		l2-0.1l0.8-0.4c0-0.7,0-1.5,0.1-2.3l-0.8-0.4l-2-0.1v-0.2l2-0.1l0.8-0.4c0-0.9,0-1.7,0.1-2.5L13,19.1L11,18.9v-0.1v-0.1l2,0.1
		l0.8-0.3c0-0.8,0-1.4,0-1.4c0-0.4,0-0.8,0.1-1.2l-0.7-0.8l-1.8-0.7l0-0.1l0-0.1l1.9,0.5l0.9-0.2c0.2-0.7,0.6-1.4,1-2l0,0l-0.4-1
		l-1.4-1.3l0.1-0.1l0.1-0.1l1.5,1.2l1.1,0.2l0,0c0.5-0.5,1-0.9,1.6-1.2l0-0.1l0.1-1.1L17,7.4l0.1,0l0.1,0l0.9,1.8L19,9.7l0,0.1
		c0.6-0.2,1.2-0.3,1.8-0.4l0.5-0.9l0.1-2.1H4.7C4.7,6.4,4.7,25,4.7,26.8z"/>
</g>
</svg>
