<?xml version="1.0" encoding="utf-8"?>
<!-- Generator: Adobe Illustrator 20.1.0, SVG Export Plug-In . SVG Version: 6.00 Build 0)  -->
<svg version="1.1" id="Layer_1" xmlns="http://www.w3.org/2000/svg" xmlns:xlink="http://www.w3.org/1999/xlink" x="0px" y="0px"  width="118.5" height="56"
	 viewBox="0 0 118.5 56" style="enable-background:new 0 0 118.5 56;" xml:space="preserve">
<style type="text/css">
	.st0{fill:#FFFFFF;}
</style>
<g id="_x3C_Layer_x3E_">
	<g>
		<path class="st0" d="M33,35.2h0.9c0.1,0,0.1,0.1,0.1,0.1v3.5c0,0.6,0.1,0.8,0.4,1.1c0.2,0.2,0.5,0.3,0.9,0.3s0.7-0.1,1-0.3
			c0.3-0.2,0.4-0.5,0.4-1.1v-3.5c0-0.1,0.1-0.1,0.1-0.1h0.6c0.1,0,0.1,0.1,0.1,0.1v3.8c0,0.6-0.2,1.1-0.7,1.5
			c-0.4,0.3-0.9,0.4-1.6,0.4c-0.7,0-1.3-0.1-1.7-0.5c-0.5-0.4-0.7-0.8-0.7-1.7v-3.6C32.9,35.3,32.9,35.2,33,35.2z"/>
		<path class="st0" d="M43,36.6v4.3c0,0.1-0.1,0.1-0.1,0.1h-0.6c-0.1,0-0.1-0.1-0.1-0.1v-5.5c0-0.1,0.1-0.1,0.1-0.1h1
			c0.1,0,0.2,0,0.3,0.2l2.5,4.1v-4.1c0-0.1,0.1-0.1,0.1-0.1h0.6c0.1,0,0.1,0.1,0.1,0.1v5.5c0,0.1-0.1,0.1-0.1,0.1h-0.9
			c-0.1,0-0.2,0-0.3-0.2L43,36.6z"/>
		<path class="st0" d="M51.4,40.9v-5.5c0-0.1,0.1-0.1,0.1-0.1h0.9c0.1,0,0.1,0.1,0.1,0.1v5.5c0,0.1-0.1,0.1-0.1,0.1h-0.9
			C51.5,41,51.4,40.9,51.4,40.9z"/>
		<path class="st0" d="M59.2,39.8l1.4-4.4c0.1-0.2,0.1-0.2,0.2-0.2h0.5c0.1,0,0.2,0,0.2,0.1c0,0,0,0.1,0,0.1l-1.8,5.3
			C59.7,41,59.6,41,59.4,41h-0.6c-0.2,0-0.3,0-0.3-0.3l-1.8-5.3c0,0,0-0.1,0-0.1c0-0.1,0-0.1,0.2-0.1h0.7c0.2,0,0.2,0,0.3,0.2
			L59.2,39.8z"/>
		<path class="st0" d="M66.8,36.1v1.4h1.8c0.1,0,0.1,0.1,0.1,0.1v0.6c0,0.1-0.1,0.1-0.1,0.1h-1.8v1.7h2.4c0.1,0,0.1,0.1,0.1,0.1v0.6
			c0,0.1-0.1,0.1-0.1,0.1h-3.4c-0.1,0-0.1-0.1-0.1-0.1v-5.5c0-0.1,0.1-0.1,0.1-0.1H69c0.1,0,0.1,0.1,0.1,0.1V36
			c0,0.1-0.1,0.1-0.1,0.1L66.8,36.1L66.8,36.1z"/>
		<path class="st0" d="M74.6,38.3v2.5c0,0.1-0.1,0.1-0.1,0.1h-0.9c-0.1,0-0.1-0.1-0.1-0.1v-5.5c0-0.1,0.1-0.1,0.1-0.1h1.9
			c0.7,0,1,0.1,1.3,0.4c0.3,0.3,0.4,0.6,0.4,1.1c0,0.9-0.4,1.4-1.2,1.5l0,0.1c0.1,0.1,0.1,0.2,0.3,0.4c0.2,0.3,0.4,0.5,0.5,0.7
			l0.9,1.4c0.1,0.1,0.1,0.1,0.1,0.2c0,0.1-0.1,0.1-0.2,0.1h-1c0,0-0.1,0-0.1-0.1L75,38.4c-0.1-0.1-0.1-0.1-0.2-0.1L74.6,38.3
			L74.6,38.3z M74.6,37.7h0.7c0.5,0,0.8-0.3,0.8-0.9S75.8,36,75.3,36h-0.7L74.6,37.7L74.6,37.7z"/>
		<path class="st0" d="M83.5,38.7l-0.9-0.6c-0.6-0.4-0.7-0.7-0.7-1.3c0-1,0.7-1.6,1.9-1.6c0.8,0,1.4,0.2,1.4,0.4v0.6
			c0,0.1,0,0.1-0.1,0.1c0,0-0.1,0-0.1,0c-0.4-0.2-0.7-0.3-1.1-0.3c-0.5,0-0.8,0.2-0.8,0.6c0,0.3,0.1,0.4,0.5,0.7l0.9,0.6
			c0.6,0.4,0.8,0.8,0.8,1.4c0,1.1-0.7,1.7-2,1.7c-0.9,0-1.6-0.2-1.6-0.5v-0.6c0-0.1,0-0.1,0.1-0.1c0,0,0.1,0,0.1,0
			c0.5,0.2,0.8,0.3,1.2,0.3c0.6,0,1-0.2,1-0.7C84.2,39.2,84,39,83.5,38.7z"/>
		<path class="st0" d="M89.7,40.9v-5.5c0-0.1,0.1-0.1,0.1-0.1h0.9c0.1,0,0.1,0.1,0.1,0.1v5.5c0,0.1-0.1,0.1-0.1,0.1h-0.9
			C89.7,41,89.7,40.9,89.7,40.9z"/>
		<path class="st0" d="M96.6,36.1H95c-0.1,0-0.1-0.1-0.1-0.1v-0.6c0-0.1,0.1-0.1,0.1-0.1h4.3c0.1,0,0.1,0.1,0.1,0.1v0.6
			c0,0.1-0.1,0.1-0.1,0.1h-1.6v4.8c0,0.1-0.1,0.1-0.1,0.1h-0.9c-0.1,0-0.1-0.1-0.1-0.1L96.6,36.1L96.6,36.1z"/>
		<path class="st0" d="M105.3,38.7l-1.9-3.3c0,0,0-0.1,0-0.1c0-0.1,0.1-0.1,0.2-0.1h0.8c0.2,0,0.2,0,0.3,0.2l1.3,2.3l1.3-2.3
			c0.1-0.1,0.1-0.1,0.2-0.1h0.6c0.1,0,0.2,0,0.2,0.1c0,0,0,0.1,0,0.1l-1.8,3.2v2.2c0,0.1-0.1,0.1-0.1,0.1h-0.9
			c-0.1,0-0.1-0.1-0.1-0.1L105.3,38.7L105.3,38.7z"/>
	</g>
	<g>
		<path class="st0" d="M35.1,18.7v11.4c0,0.2-0.1,0.3-0.3,0.3h-1.7c-0.2,0-0.3-0.1-0.3-0.3V15.3c0-0.2,0.1-0.3,0.3-0.3H36
			c0.6,0,0.7,0.1,0.9,0.7l4,12.3l3.8-12.1c0.3-0.8,0.4-0.9,0.8-0.9h3c0.2,0,0.3,0.1,0.3,0.3v14.8c0,0.2-0.1,0.3-0.3,0.3h-2.3
			c-0.2,0-0.3-0.1-0.3-0.3V18.7l-3.6,10.8c-0.3,0.9-0.4,1-1,1h-1.8c-0.4,0-0.5-0.1-0.8-0.8L35.1,18.7z"/>
		<path class="st0" d="M58.5,29.9L58.5,29.9c-0.4,0-0.5,0-0.8,0.2L57,30.3c-0.5,0.2-1.3,0.3-2.1,0.3c-2.5,0-3.8-1.3-3.8-3.7v-7.4
			c0-0.2,0.1-0.3,0.3-0.3h2.1c0.2,0,0.3,0.1,0.3,0.3v6.5c0,1.8,0.6,2.5,2.2,2.5c1.4,0,2.2-0.6,2.2-1.6v-7.4c0-0.2,0.1-0.3,0.3-0.3
			h2.1c0.2,0,0.3,0.1,0.3,0.3v10.5c0,0.2-0.1,0.3-0.3,0.3h-1.8c-0.1,0-0.2-0.1-0.2-0.3L58.5,29.9L58.5,29.9z"/>
		<path class="st0" d="M65.7,20c0.3,0,0.3,0,0.6-0.2c0.8-0.4,1.8-0.6,2.5-0.6s0.9,0.1,0.9,0.5v1.6c0,0.2-0.1,0.4-0.4,0.4
			c-0.1,0-0.2,0-0.3,0l-0.4,0l-0.5-0.1c-0.2,0-0.4,0-0.5,0c-1.2,0-1.7,0.5-1.7,1.6v7c0,0.2-0.1,0.3-0.3,0.3h-2.1
			c-0.2,0-0.3-0.1-0.3-0.3V19.6c0-0.2,0.1-0.3,0.3-0.3h1.8c0.2,0,0.4,0.1,0.4,0.3L65.7,20L65.7,20z"/>
		<path class="st0" d="M78.6,29.8c-0.2,0-0.2,0-0.5,0.1c-0.8,0.4-1.6,0.6-2.5,0.6c-3.2,0-5.2-2.2-5.2-5.6c0-3.4,2.2-5.8,5.3-5.8
			c0.9,0,1.5,0.2,2.2,0.5c0.2,0.1,0.3,0.2,0.5,0.2v-4.7c0-0.2,0.1-0.3,0.3-0.3h2.1c0.2,0,0.3,0.1,0.3,0.3v15c0,0.2-0.1,0.3-0.3,0.3
			h-1.8c-0.2,0-0.4-0.1-0.4-0.3L78.6,29.8L78.6,29.8z M78.4,27.2v-4.5c0-1.2-0.7-1.7-2.2-1.7c-2,0-3.1,1.4-3.1,3.9
			c0,2.5,1.1,3.9,3.1,3.9C77.5,28.7,78.4,28.2,78.4,27.2z"/>
		<path class="st0" d="M82.7,24.9c0-3.8,1.9-5.8,5.4-5.8c1.7,0,2.8,0.4,3.7,1.2c1.2,1.1,1.8,2.6,1.8,4.5c0,3.9-1.9,5.9-5.5,5.9
			c-1.7,0-2.7-0.3-3.7-1.2C83.3,28.6,82.7,27.1,82.7,24.9z M85.4,24.9c0,2.5,1.1,4,2.8,4c1.7,0,2.8-1.5,2.8-3.9c0-2.5-1.1-4-2.8-4
			C86.4,21,85.4,22.4,85.4,24.9z"/>
		<path class="st0" d="M104,28.3v1.1c0,0.7-1.6,1.2-3.6,1.2c-3.4,0-5.5-2.1-5.5-5.6c0-3.5,2.2-5.9,5.6-5.9c2,0,3.5,0.5,3.5,1.1v1.2
			c0,0.2-0.1,0.3-0.2,0.3c-0.1,0-0.2,0-0.4-0.1c-0.6-0.4-1.6-0.6-2.4-0.6c-2.2,0-3.4,1.3-3.4,3.8c0,2.7,1.1,3.9,3.2,3.9
			c0.9,0,2-0.3,2.6-0.7c0.1-0.1,0.3-0.1,0.4-0.1C103.9,28,104,28.1,104,28.3z"/>
		<path class="st0" d="M108.3,19.9L108.3,19.9c0.3,0,0.3,0,0.7-0.2c0.7-0.4,1.6-0.5,2.5-0.5c2.4,0,3.9,1.4,3.9,3.8v7.2
			c0,0.2-0.1,0.3-0.3,0.3h-2.1c-0.2,0-0.3-0.1-0.3-0.3v-6.3c0-1.9-0.6-2.7-2.1-2.7c-1.4,0-2.3,0.6-2.3,1.6v7.4
			c0,0.2-0.1,0.3-0.3,0.3H106c-0.2,0-0.3-0.1-0.3-0.3v-15c0-0.2,0.1-0.3,0.3-0.3h2.1c0.2,0,0.3,0.1,0.3,0.3L108.3,19.9L108.3,19.9z"
			/>
	</g>
</g>
<g id="_x3C_Layer_x3E__1_">
	<path class="st0" d="M22.8,33.7H18c-0.5,0-1.7,0.1-2.6,0.6c-0.7,0.4-1.2,1.2-1.2,1.2s-0.5-0.7-1.2-1.2c-0.8-0.5-2-0.6-2.6-0.6H5.7
		c0.4,0.8,1,1.6,1.7,2.3c3.7,3.7,6.9,5,6.9,5s3.1-1.2,6.9-5C21.9,35.3,22.4,34.5,22.8,33.7z"/>
	<g>
		<path class="st0" d="M26.1,27.7l-0.6,1.6c0,0-0.7,0.3-1.9,0.3s-1.1-0.1-2.3-0.1c-2.7,0-3.8,0.9-3.8,0.9s0.6-1.3,2.1-1.9
			c0.8-0.3,1.4-0.4,1.8-0.4s1.8,0.2,2.6,0.2C24.9,28.3,26.1,27.7,26.1,27.7z"/>
		<path class="st0" d="M2.4,27.7l0.6,1.6c0,0,0.7,0.3,1.9,0.3s1.1-0.1,2.3-0.1c2.7,0,3.8,0.9,3.8,0.9s-0.6-1.3-2.1-1.9
			c-0.8-0.3-1.4-0.4-1.8-0.4s-1.8,0.2-2.6,0.2C3.6,28.3,2.4,27.7,2.4,27.7z"/>
	</g>
	<path class="st0" d="M17.5,21.4c0-0.8-0.3-1.6-0.8-2.1l-0.1,10.8l-0.3-11.2c-0.3-0.2-0.6-0.4-1-0.5l-0.2,12.5l-0.3-12.7
		c-0.2,0-0.4-0.1-0.6-0.1c-0.2,0-0.4,0-0.6,0.1l-0.3,12.7l-0.2-12.5c-0.3,0.1-0.7,0.3-1,0.5l-0.3,11.2l-0.1-10.8
		c-0.5,0.6-0.8,1.3-0.8,2.1c0,0.6-0.1,4.9-0.1,6.7c0,2,1.5,2.9,2.2,3.1c1.1,0.4,1.2,1.3,1.2,1.3s0.1-0.9,1.2-1.3
		c0.7-0.3,2.1-1.2,2.2-3.1C17.6,26.4,17.5,22.1,17.5,21.4z"/>
	<g>
		<path class="st0" d="M25.3,31.2c0,0-6.5,0-7.1,0c-2.3,0-3.9,1.4-4,3.2c0.1-0.1,0.7-1.9,3.9-1.9c0.6,0,6.6,0,6.6,0L25.3,31.2
			L25.3,31.2z"/>
		<path class="st0" d="M3.2,31.2c0,0,6.5,0,7.1,0c2.3,0,3.9,1.4,4,3.2c-0.1-0.1-0.7-1.9-3.9-1.9c-0.6,0-6.6,0-6.6,0L3.2,31.2
			L3.2,31.2z"/>
	</g>
	<path class="st0" d="M14.3,15l0.1,1.3l0.3,0.6c0.4,0,0.7,0.1,1.1,0.2l0-0.1l0.5-0.4l0.5-1.1l0.1,0l0.1,0l-0.5,1.1l0,0.7l0,0
		c0.3,0.2,0.7,0.4,1,0.7l0,0l0.6-0.1l0.9-0.7l0,0l0,0l-0.9,0.8l-0.2,0.6l0,0c0.3,0.4,0.5,0.7,0.6,1.2l0.6,0.1l1.1-0.3l0,0.1l0,0.1
		l-1.1,0.4l-0.4,0.5h0c0,0.2,0.1,0.5,0.1,0.7c0,0,0,0.3,0,0.8l0.5,0.2l1.2,0v0.1v0.1l-1.2,0.1L18.9,23c0,0.4,0,0.9,0,1.4l0.5,0.3
		l1.2,0.1v0.1l-1.2,0L19,25.2c0,0.5,0,1,0,1.4l0.5,0.3l1.2,0.1V27l-1.2,0l-0.5,0.3c0,0.4,0,0.7,0,0.7c0,0.2,0,0.4-0.1,0.6l0,0
		c0.2-0.1,0.3-0.2,0.5-0.3c0.8-0.3,1.4-0.4,1.8-0.4s1.8,0.2,2.6,0.2c0.1,0,0.3,0,0.4,0c0-0.4,0.1-0.7,0.1-0.9c0-1.1,0-12.4,0-12.4
		H14.3V15z M4.1,27.4c0,0.2,0,0.5,0.1,0.9c0.1,0,0.3,0,0.4,0c0.8,0,2.2-0.2,2.6-0.2c0.4,0,1.1,0,1.8,0.4c0.2,0.1,0.3,0.2,0.5,0.2
		c0-0.2-0.1-0.4-0.1-0.6c0,0,0-0.3,0-0.7L9,27.1l-1.2,0V27L9,26.9l0.5-0.3c0-0.4,0-0.9,0-1.4L9,25l-1.2,0v-0.1L9,24.8l0.5-0.3
		c0-0.5,0-1,0-1.5l-0.5-0.3l-1.2-0.1v-0.1v-0.1l1.2,0l0.5-0.2c0-0.5,0-0.8,0-0.8c0-0.2,0-0.5,0.1-0.7l-0.4-0.5l-1.1-0.4l0-0.1l0-0.1
		l1.1,0.3L9.8,20c0.1-0.4,0.4-0.8,0.6-1.2l0,0l-0.2-0.6l-0.9-0.8l0,0l0,0l0.9,0.7l0.6,0.1l0,0c0.3-0.3,0.6-0.5,1-0.7l0,0l0-0.7
		l-0.5-1.1l0.1,0l0.1,0l0.5,1.1l0.5,0.4l0,0.1c0.3-0.1,0.7-0.2,1.1-0.2l0.3-0.6l0-1.3H4.1C4.1,15,4.1,26.3,4.1,27.4z"/>
</g>
</svg>
